<svg width="40" height="40" viewBox="0 0 40 40" fill="none" xmlns="http://www.w3.org/2000/svg">
<circle cx="20" cy="20" r="20" fill="#D93175"/>
<path d="M20 11.8032C22.6703 11.8032 22.9863 11.8135 24.041 11.8616C25.0159 11.906 25.5454 12.0687 25.8979 12.2057C26.3328 12.3658 26.7262 12.6215 27.0491 12.9539C27.3815 13.2767 27.6372 13.6701 27.7973 14.1049C27.9343 14.4574 28.097 14.9869 28.1415 15.9617C28.1895 17.0164 28.1998 17.3323 28.1998 20.0024C28.1998 22.6725 28.1895 22.9884 28.1415 24.043C28.097 25.0179 27.9343 25.5474 27.7973 25.8998C27.6308 26.3309 27.3759 26.7225 27.0491 27.0493C26.7222 27.3761 26.3307 27.631 25.8995 27.7975C25.547 27.9344 25.0175 28.0972 24.0426 28.1416C22.9883 28.1896 22.6719 28.2 20.0016 28.2C17.3313 28.2 17.0149 28.1896 15.9606 28.1416C14.9857 28.0972 14.4562 27.9344 14.1037 27.7975C13.6688 27.6374 13.2754 27.3817 12.9525 27.0493C12.6201 26.7264 12.3644 26.3331 12.2043 25.8982C12.0673 25.5458 11.9046 25.0163 11.8601 24.0414C11.8121 22.9868 11.8018 22.6709 11.8018 20.0008C11.8018 17.3307 11.8121 17.0148 11.8601 15.9601C11.9046 14.9853 12.0673 14.4558 12.2043 14.1034C12.3644 13.6685 12.6201 13.2752 12.9525 12.9523C13.2754 12.6199 13.6688 12.3642 14.1037 12.2041C14.4562 12.0672 14.9857 11.9044 15.9606 11.86C17.0153 11.8119 17.3313 11.8016 20.0016 11.8016L20 11.8032ZM20.0016 10C17.2856 10 16.9451 10.0115 15.8785 10.0603C14.8118 10.1092 14.0854 10.2794 13.4503 10.5263C12.7829 10.7775 12.1782 11.1712 11.6783 11.6798C11.1697 12.1796 10.776 12.7842 10.5248 13.4516C10.2779 14.0867 10.1088 14.8146 10.0603 15.8788C10.0119 16.9429 10 17.2851 10 20.0008C10 22.7165 10.0115 23.0571 10.0603 24.1236C10.1092 25.1901 10.2779 25.9149 10.5248 26.55C10.7761 27.2171 11.1698 27.8214 11.6783 28.321C12.178 28.8299 12.7827 29.2237 13.4503 29.4749C14.0854 29.7222 14.8134 29.8912 15.8777 29.9397C16.9419 29.9881 17.2849 30 20.0008 30C22.7167 30 23.0573 29.9885 24.1239 29.9397C25.1905 29.8908 25.9146 29.7222 26.5497 29.4749C27.2142 29.2181 27.8177 28.8253 28.3215 28.3216C28.8252 27.8179 29.2181 27.2144 29.4748 26.55C29.7221 25.9149 29.8912 25.1869 29.9397 24.1228C29.9881 23.0587 30 22.7157 30 20C30 17.2843 29.9885 16.9437 29.9397 15.8772C29.8908 14.8107 29.7221 14.0867 29.4748 13.4516C29.2238 12.7845 28.8303 12.1801 28.3217 11.6806C27.8219 11.1717 27.2172 10.7778 26.5497 10.5263C25.9146 10.2794 25.1866 10.1103 24.1223 10.0619C23.0581 10.0135 22.7159 10.0016 20 10.0016L20.0016 10Z" fill="white"/>
<path d="M20.0002 14.8662C18.9846 14.8662 17.9918 15.1673 17.1474 15.7315C16.3029 16.2957 15.6448 17.0976 15.2561 18.0359C14.8675 18.9741 14.7658 20.0065 14.9639 21.0025C15.162 21.9985 15.6511 22.9134 16.3692 23.6314C17.0874 24.3495 18.0023 24.8385 18.9984 25.0367C19.9945 25.2348 21.027 25.1331 21.9653 24.7445C22.9036 24.3559 23.7055 23.6977 24.2698 22.8534C24.834 22.009 25.1352 21.0163 25.1352 20.0008C25.1352 19.3265 25.0024 18.6588 24.7444 18.0358C24.4864 17.4128 24.1081 16.8468 23.6313 16.37C23.1544 15.8932 22.5884 15.515 21.9653 15.2569C21.3423 14.9989 20.6745 14.8662 20.0002 14.8662V14.8662ZM20.0002 23.3349C19.3407 23.3349 18.696 23.1394 18.1477 22.773C17.5994 22.4066 17.172 21.8859 16.9196 21.2767C16.6673 20.6675 16.6012 19.9971 16.7299 19.3503C16.8585 18.7036 17.1761 18.1095 17.6424 17.6432C18.1088 17.1769 18.7029 16.8594 19.3497 16.7307C19.9965 16.6021 20.6669 16.6681 21.2762 16.9204C21.8855 17.1728 22.4063 17.6001 22.7726 18.1484C23.139 18.6967 23.3346 19.3413 23.3346 20.0008C23.3346 20.885 22.9833 21.7331 22.358 22.3584C21.7327 22.9836 20.8845 23.3349 20.0002 23.3349Z" fill="white"/>
<path d="M25.3382 15.8629C26.0009 15.8629 26.5382 15.3257 26.5382 14.663C26.5382 14.0003 26.0009 13.4631 25.3382 13.4631C24.6754 13.4631 24.1382 14.0003 24.1382 14.663C24.1382 15.3257 24.6754 15.8629 25.3382 15.8629Z" fill="white"/>
</svg>
