<svg width="40" height="40" viewBox="0 0 40 40" fill="none" xmlns="http://www.w3.org/2000/svg">
<circle cx="20" cy="20" r="20" fill="#007CB3"/>
<path d="M10.334 16.2889H14.4893V29H10.334V16.2889ZM12.4078 10C12.8843 10 13.3501 10.1347 13.7462 10.3871C14.1424 10.6394 14.451 10.9981 14.633 11.4176C14.815 11.8371 14.8622 12.2987 14.7687 12.7438C14.6751 13.1889 14.445 13.5976 14.1075 13.9181C13.77 14.2385 13.3403 14.4564 12.8727 14.5441C12.4051 14.6317 11.9208 14.5852 11.481 14.4105C11.0411 14.2358 10.6656 13.9407 10.402 13.5625C10.1384 13.1843 9.99848 12.7402 10 12.2862C10 11.9854 10.0623 11.6875 10.1834 11.4096C10.3045 11.1318 10.482 10.8794 10.7057 10.667C10.9294 10.4546 11.1949 10.2864 11.4869 10.1719C11.779 10.0575 12.0919 9.99904 12.4078 10" fill="white"/>
<path d="M17 16.3212H20.9767V18.0525H21.031C21.4286 17.4045 22.0036 16.8716 22.6944 16.5106C23.3852 16.1496 24.166 15.9742 24.9533 16.0031C29.1552 16.0031 29.9319 18.637 29.9319 22.0552V29.0323H25.8077V22.8469C25.8077 21.3672 25.8077 19.4805 23.6485 19.4805C21.4893 19.4805 21.1631 21.086 21.1631 22.7433V29.0323H17V16.3212Z" fill="white"/>
</svg>
