<svg width="40" height="40" viewBox="0 0 40 40" fill="none" xmlns="http://www.w3.org/2000/svg">
<circle cx="20" cy="20" r="20" fill="#FF0000"/>
<path d="M30.5609 15.3419C30.4422 14.889 30.2082 14.4756 29.8824 14.1432C29.5565 13.8107 29.1503 13.5708 28.7043 13.4476C27.0625 13 20.5 13 20.5 13C20.5 13 13.9375 13 12.2957 13.4476C11.8497 13.5708 11.4435 13.8107 11.1176 14.1432C10.7918 14.4756 10.5578 14.889 10.4391 15.3419C10 17.0137 10 20.5 10 20.5C10 20.5 10 23.9863 10.4391 25.6581C10.5578 26.111 10.7918 26.5244 11.1176 26.8568C11.4435 27.1893 11.8497 27.4292 12.2957 27.5524C13.9375 28 20.5 28 20.5 28C20.5 28 27.0625 28 28.7043 27.5524C29.1503 27.4292 29.5565 27.1893 29.8824 26.8568C30.2082 26.5244 30.4422 26.111 30.5609 25.6581C31 23.9863 31 20.5 31 20.5C31 20.5 31 17.0137 30.5609 15.3419Z" fill="white"/>
<path d="M18.3523 23.6658L23.8409 20.5001L18.3523 17.3344V23.6658Z" fill="#FF0000"/>
</svg>
