<svg xmlns="http://www.w3.org/2000/svg" width="40" height="40" fill="none" viewBox="0 0 40 40"><circle cx="20" cy="20" r="20" fill="#1DA1F2"/><path fill="#fff" d="M15.9192 29C24.2212 29 28.7616 22.0774 28.7616 16.0745C28.7616 15.8785 28.7572 15.6828 28.7485 15.4875C29.6319 14.8429 30.3943 14.0453 31 13.1319C30.1761 13.4989 29.3024 13.7399 28.4077 13.8471C29.3499 13.2792 30.0549 12.3862 30.3915 11.3341C29.5056 11.8631 28.5365 12.236 27.5259 12.4365C26.8458 11.7064 25.9452 11.2226 24.964 11.0602C23.9828 10.8978 22.9758 11.0659 22.0992 11.5384C21.2226 12.0109 20.5255 12.7614 20.116 13.6734C19.7064 14.5854 19.6074 15.6079 19.8343 16.5823C18.0396 16.4922 16.2837 16.023 14.6809 15.2053C13.0781 14.3877 11.664 13.2398 10.5306 11.8363C9.95342 12.8363 9.77656 14.0201 10.0361 15.1468C10.2955 16.2734 10.9719 17.2581 11.9274 17.9005C11.2107 17.8798 10.5095 17.6859 9.88281 17.3352C9.88281 17.354 9.88281 17.3729 9.88281 17.3936C9.88335 18.4425 10.2443 19.4589 10.9045 20.2705C11.5646 21.0821 12.4833 21.6389 13.5049 21.8466C12.8401 22.0294 12.1425 22.0561 11.4659 21.9248C11.7542 22.8268 12.3151 23.6156 13.0703 24.1813C13.8256 24.747 14.7374 25.0613 15.6786 25.0803C14.0804 26.3415 12.1075 27.0254 10.0766 27.0223C9.71684 27.0225 9.35737 27.0018 9 26.9601C11.0641 28.2942 13.4661 29.0024 15.9192 29"/></svg>